<mxfile host="app.diagrams.net" agent="Mozilla/5.0 (Windows NT 10.0; Win64; x64) AppleWebKit/537.36 (KHTML, like Gecko) Chrome/125.0.0.0 Safari/537.36 OPR/111.0.0.0" version="24.7.6">
  <diagram name="Page-1" id="R3QL27ZRKSAXmsxr0TTM">
    <mxGraphModel dx="3809" dy="1994" grid="1" gridSize="10" guides="1" tooltips="1" connect="1" arrows="1" fold="1" page="1" pageScale="1" pageWidth="850" pageHeight="1100" math="0" shadow="0">
      <root>
        <mxCell id="0" />
        <mxCell id="1" parent="0" />
        <mxCell id="m0V3_cafG3HXBkxv4FI2-119" value="Start" style="ellipse;aspect=fixed;strokeWidth=2;whiteSpace=wrap;" vertex="1" parent="1">
          <mxGeometry x="350" y="20" width="51" height="51" as="geometry" />
        </mxCell>
        <mxCell id="m0V3_cafG3HXBkxv4FI2-120" value="Condition 1" style="rhombus;strokeWidth=2;whiteSpace=wrap;" vertex="1" parent="1">
          <mxGeometry x="308" y="121" width="136" height="136" as="geometry" />
        </mxCell>
        <mxCell id="m0V3_cafG3HXBkxv4FI2-121" value="Process 1" style="ellipse;aspect=fixed;strokeWidth=2;whiteSpace=wrap;" vertex="1" parent="1">
          <mxGeometry x="86" y="308" width="83" height="83" as="geometry" />
        </mxCell>
        <mxCell id="m0V3_cafG3HXBkxv4FI2-122" value="Condition 2" style="rhombus;strokeWidth=2;whiteSpace=wrap;" vertex="1" parent="1">
          <mxGeometry x="59" y="440" width="136" height="136" as="geometry" />
        </mxCell>
        <mxCell id="m0V3_cafG3HXBkxv4FI2-123" value="Process 2" style="ellipse;aspect=fixed;strokeWidth=2;whiteSpace=wrap;" vertex="1" parent="1">
          <mxGeometry x="20" y="649" width="83" height="83" as="geometry" />
        </mxCell>
        <mxCell id="m0V3_cafG3HXBkxv4FI2-124" value="Process 3" style="ellipse;aspect=fixed;strokeWidth=2;whiteSpace=wrap;" vertex="1" parent="1">
          <mxGeometry x="153" y="649" width="83" height="83" as="geometry" />
        </mxCell>
        <mxCell id="m0V3_cafG3HXBkxv4FI2-125" value="Process 4" style="ellipse;aspect=fixed;strokeWidth=2;whiteSpace=wrap;" vertex="1" parent="1">
          <mxGeometry x="153" y="781" width="83" height="83" as="geometry" />
        </mxCell>
        <mxCell id="m0V3_cafG3HXBkxv4FI2-126" value="Condition 3" style="rhombus;strokeWidth=2;whiteSpace=wrap;" vertex="1" parent="1">
          <mxGeometry x="126" y="914" width="136" height="136" as="geometry" />
        </mxCell>
        <mxCell id="m0V3_cafG3HXBkxv4FI2-127" value="Final Process" style="ellipse;aspect=fixed;strokeWidth=2;whiteSpace=wrap;" vertex="1" parent="1">
          <mxGeometry x="48" y="1146" width="109" height="109" as="geometry" />
        </mxCell>
        <mxCell id="m0V3_cafG3HXBkxv4FI2-128" value="Alternative Process" style="ellipse;aspect=fixed;strokeWidth=2;whiteSpace=wrap;" vertex="1" parent="1">
          <mxGeometry x="207" y="1123" width="155" height="155" as="geometry" />
        </mxCell>
        <mxCell id="m0V3_cafG3HXBkxv4FI2-129" value="Process 5" style="ellipse;aspect=fixed;strokeWidth=2;whiteSpace=wrap;" vertex="1" parent="1">
          <mxGeometry x="583" y="308" width="83" height="83" as="geometry" />
        </mxCell>
        <mxCell id="m0V3_cafG3HXBkxv4FI2-130" value="Condition 4" style="rhombus;strokeWidth=2;whiteSpace=wrap;" vertex="1" parent="1">
          <mxGeometry x="556" y="440" width="136" height="136" as="geometry" />
        </mxCell>
        <mxCell id="m0V3_cafG3HXBkxv4FI2-131" value="Process 6" style="ellipse;aspect=fixed;strokeWidth=2;whiteSpace=wrap;" vertex="1" parent="1">
          <mxGeometry x="516" y="649" width="83" height="83" as="geometry" />
        </mxCell>
        <mxCell id="m0V3_cafG3HXBkxv4FI2-132" value="Process 7" style="ellipse;aspect=fixed;strokeWidth=2;whiteSpace=wrap;" vertex="1" parent="1">
          <mxGeometry x="649" y="649" width="83" height="83" as="geometry" />
        </mxCell>
        <mxCell id="m0V3_cafG3HXBkxv4FI2-133" value="Process 8" style="ellipse;aspect=fixed;strokeWidth=2;whiteSpace=wrap;" vertex="1" parent="1">
          <mxGeometry x="516" y="781" width="83" height="83" as="geometry" />
        </mxCell>
        <mxCell id="m0V3_cafG3HXBkxv4FI2-134" value="Condition 5" style="rhombus;strokeWidth=2;whiteSpace=wrap;" vertex="1" parent="1">
          <mxGeometry x="489" y="914" width="136" height="136" as="geometry" />
        </mxCell>
        <mxCell id="m0V3_cafG3HXBkxv4FI2-135" value="Final Process" style="ellipse;aspect=fixed;strokeWidth=2;whiteSpace=wrap;" vertex="1" parent="1">
          <mxGeometry x="412" y="1146" width="109" height="109" as="geometry" />
        </mxCell>
        <mxCell id="m0V3_cafG3HXBkxv4FI2-136" value="Alternative Process" style="ellipse;aspect=fixed;strokeWidth=2;whiteSpace=wrap;" vertex="1" parent="1">
          <mxGeometry x="571" y="1123" width="155" height="155" as="geometry" />
        </mxCell>
        <mxCell id="m0V3_cafG3HXBkxv4FI2-137" value="" style="curved=1;startArrow=none;endArrow=block;exitX=0.5;exitY=1;entryX=0.5;entryY=0;rounded=0;" edge="1" parent="1" source="m0V3_cafG3HXBkxv4FI2-119" target="m0V3_cafG3HXBkxv4FI2-120">
          <mxGeometry relative="1" as="geometry">
            <Array as="points" />
          </mxGeometry>
        </mxCell>
        <mxCell id="m0V3_cafG3HXBkxv4FI2-138" value="" style="curved=1;startArrow=none;endArrow=block;exitX=0;exitY=0.69;entryX=0.5;entryY=-0.01;rounded=0;" edge="1" parent="1" source="m0V3_cafG3HXBkxv4FI2-120" target="m0V3_cafG3HXBkxv4FI2-121">
          <mxGeometry relative="1" as="geometry">
            <Array as="points">
              <mxPoint x="128" y="283" />
            </Array>
          </mxGeometry>
        </mxCell>
        <mxCell id="m0V3_cafG3HXBkxv4FI2-139" value="" style="curved=1;startArrow=none;endArrow=block;exitX=0.5;exitY=0.99;entryX=0.5;entryY=0;rounded=0;" edge="1" parent="1" source="m0V3_cafG3HXBkxv4FI2-121" target="m0V3_cafG3HXBkxv4FI2-122">
          <mxGeometry relative="1" as="geometry">
            <Array as="points" />
          </mxGeometry>
        </mxCell>
        <mxCell id="m0V3_cafG3HXBkxv4FI2-140" value="Yes" style="curved=1;startArrow=none;endArrow=block;exitX=0.19;exitY=1;entryX=0.5;entryY=0;rounded=0;" edge="1" parent="1" source="m0V3_cafG3HXBkxv4FI2-122" target="m0V3_cafG3HXBkxv4FI2-123">
          <mxGeometry relative="1" as="geometry">
            <Array as="points">
              <mxPoint x="61" y="613" />
            </Array>
          </mxGeometry>
        </mxCell>
        <mxCell id="m0V3_cafG3HXBkxv4FI2-141" value="No" style="curved=1;startArrow=none;endArrow=block;exitX=0.82;exitY=1;entryX=0.49;entryY=0;rounded=0;" edge="1" parent="1" source="m0V3_cafG3HXBkxv4FI2-122" target="m0V3_cafG3HXBkxv4FI2-124">
          <mxGeometry relative="1" as="geometry">
            <Array as="points">
              <mxPoint x="194" y="613" />
            </Array>
          </mxGeometry>
        </mxCell>
        <mxCell id="m0V3_cafG3HXBkxv4FI2-142" value="" style="curved=1;startArrow=none;endArrow=block;exitX=0.49;exitY=0.99;entryX=0.49;entryY=0;rounded=0;" edge="1" parent="1" source="m0V3_cafG3HXBkxv4FI2-124" target="m0V3_cafG3HXBkxv4FI2-125">
          <mxGeometry relative="1" as="geometry">
            <Array as="points" />
          </mxGeometry>
        </mxCell>
        <mxCell id="m0V3_cafG3HXBkxv4FI2-143" value="" style="curved=1;startArrow=none;endArrow=block;exitX=0.49;exitY=1;entryX=0.5;entryY=0;rounded=0;" edge="1" parent="1" source="m0V3_cafG3HXBkxv4FI2-125" target="m0V3_cafG3HXBkxv4FI2-126">
          <mxGeometry relative="1" as="geometry">
            <Array as="points" />
          </mxGeometry>
        </mxCell>
        <mxCell id="m0V3_cafG3HXBkxv4FI2-144" value="Yes" style="curved=1;startArrow=none;endArrow=block;exitX=0.06;exitY=1;entryX=0.5;entryY=0;rounded=0;" edge="1" parent="1" source="m0V3_cafG3HXBkxv4FI2-126" target="m0V3_cafG3HXBkxv4FI2-127">
          <mxGeometry relative="1" as="geometry">
            <Array as="points">
              <mxPoint x="103" y="1086" />
            </Array>
          </mxGeometry>
        </mxCell>
        <mxCell id="m0V3_cafG3HXBkxv4FI2-145" value="No" style="curved=1;startArrow=none;endArrow=block;exitX=0.93;exitY=1;entryX=0.5;entryY=0;rounded=0;" edge="1" parent="1" source="m0V3_cafG3HXBkxv4FI2-126" target="m0V3_cafG3HXBkxv4FI2-128">
          <mxGeometry relative="1" as="geometry">
            <Array as="points">
              <mxPoint x="285" y="1086" />
            </Array>
          </mxGeometry>
        </mxCell>
        <mxCell id="m0V3_cafG3HXBkxv4FI2-146" value="" style="curved=1;startArrow=none;endArrow=block;exitX=1;exitY=0.69;entryX=0.49;entryY=-0.01;rounded=0;" edge="1" parent="1" source="m0V3_cafG3HXBkxv4FI2-120" target="m0V3_cafG3HXBkxv4FI2-129">
          <mxGeometry relative="1" as="geometry">
            <Array as="points">
              <mxPoint x="624" y="283" />
            </Array>
          </mxGeometry>
        </mxCell>
        <mxCell id="m0V3_cafG3HXBkxv4FI2-147" value="" style="curved=1;startArrow=none;endArrow=block;exitX=0.49;exitY=0.99;entryX=0.5;entryY=0;rounded=0;" edge="1" parent="1" source="m0V3_cafG3HXBkxv4FI2-129" target="m0V3_cafG3HXBkxv4FI2-130">
          <mxGeometry relative="1" as="geometry">
            <Array as="points" />
          </mxGeometry>
        </mxCell>
        <mxCell id="m0V3_cafG3HXBkxv4FI2-148" value="Yes" style="curved=1;startArrow=none;endArrow=block;exitX=0.18;exitY=1;entryX=0.5;entryY=0;rounded=0;" edge="1" parent="1" source="m0V3_cafG3HXBkxv4FI2-130" target="m0V3_cafG3HXBkxv4FI2-131">
          <mxGeometry relative="1" as="geometry">
            <Array as="points">
              <mxPoint x="558" y="613" />
            </Array>
          </mxGeometry>
        </mxCell>
        <mxCell id="m0V3_cafG3HXBkxv4FI2-149" value="No" style="curved=1;startArrow=none;endArrow=block;exitX=0.82;exitY=1;entryX=0.49;entryY=0;rounded=0;" edge="1" parent="1" source="m0V3_cafG3HXBkxv4FI2-130" target="m0V3_cafG3HXBkxv4FI2-132">
          <mxGeometry relative="1" as="geometry">
            <Array as="points">
              <mxPoint x="690" y="613" />
            </Array>
          </mxGeometry>
        </mxCell>
        <mxCell id="m0V3_cafG3HXBkxv4FI2-150" value="" style="curved=1;startArrow=none;endArrow=block;exitX=0.5;exitY=0.99;entryX=0.5;entryY=0;rounded=0;" edge="1" parent="1" source="m0V3_cafG3HXBkxv4FI2-131" target="m0V3_cafG3HXBkxv4FI2-133">
          <mxGeometry relative="1" as="geometry">
            <Array as="points" />
          </mxGeometry>
        </mxCell>
        <mxCell id="m0V3_cafG3HXBkxv4FI2-151" value="" style="curved=1;startArrow=none;endArrow=block;exitX=0.5;exitY=1;entryX=0.5;entryY=0;rounded=0;" edge="1" parent="1" source="m0V3_cafG3HXBkxv4FI2-133" target="m0V3_cafG3HXBkxv4FI2-134">
          <mxGeometry relative="1" as="geometry">
            <Array as="points" />
          </mxGeometry>
        </mxCell>
        <mxCell id="m0V3_cafG3HXBkxv4FI2-152" value="Yes" style="curved=1;startArrow=none;endArrow=block;exitX=0.07;exitY=1;entryX=0.5;entryY=0;rounded=0;" edge="1" parent="1" source="m0V3_cafG3HXBkxv4FI2-134" target="m0V3_cafG3HXBkxv4FI2-135">
          <mxGeometry relative="1" as="geometry">
            <Array as="points">
              <mxPoint x="467" y="1086" />
            </Array>
          </mxGeometry>
        </mxCell>
        <mxCell id="m0V3_cafG3HXBkxv4FI2-153" value="No" style="curved=1;startArrow=none;endArrow=block;exitX=0.94;exitY=1;entryX=0.5;entryY=0;rounded=0;" edge="1" parent="1" source="m0V3_cafG3HXBkxv4FI2-134" target="m0V3_cafG3HXBkxv4FI2-136">
          <mxGeometry relative="1" as="geometry">
            <Array as="points">
              <mxPoint x="648" y="1086" />
            </Array>
          </mxGeometry>
        </mxCell>
      </root>
    </mxGraphModel>
  </diagram>
</mxfile>
